<?xml version="1.0" encoding="utf-8"?>
<!-- Generator: Adobe Illustrator 24.0.2, SVG Export Plug-In . SVG Version: 6.00 Build 0)  -->
<svg version="1.1" id="Layer_1" xmlns="http://www.w3.org/2000/svg" xmlns:xlink="http://www.w3.org/1999/xlink" x="0px" y="0px"
	 viewBox="0 0 605.8 520" style="enable-background:new 0 0 605.8 520;" xml:space="preserve">
<style type="text/css">
	.st0{opacity:0.15;fill:#292929;enable-background:new    ;}
	.st1{fill:#FFFFFF;stroke:#18216D;stroke-miterlimit:10;}
	.st2{fill:#18216D;}
	.st3{fill:#005FEC;}
	.st4{fill:#FFFFFF;}
	.st5{fill:none;stroke:#C9CDD1;stroke-miterlimit:10;}
	.st6{fill:none;stroke:#18216D;stroke-miterlimit:10;}
	.st7{fill:none;stroke:#00ECD0;stroke-width:2;stroke-miterlimit:10;}
</style>
<path class="st0" d="M477,499.6H290.7c-1.1,0-2.1-0.2-3.1-0.6s-1.9-1-2.6-1.7s-1.3-1.6-1.7-2.6s-0.6-2-0.6-3.1
	c0-2.1,0.9-4.2,2.4-5.7s3.6-2.4,5.7-2.4h186.3c2.1,0,4.2,0.8,5.7,2.4c1.5,1.5,2.4,3.6,2.4,5.7s-0.8,4.2-2.4,5.7
	C481.1,498.8,479.1,499.6,477,499.6z"/>
<path class="st0" d="M258.5,501H217c-3,0-5.4,2.4-5.4,5.4s2.4,5.4,5.4,5.4h41.5c3,0,5.4-2.4,5.4-5.4S261.5,501,258.5,501z"/>
<path class="st1" d="M510.6,417.7c-6.4-13-9.5-27.4-9.1-41.9c0.2-7,1.2-14.1,0.4-21.1c-1.9-14.8-12.6-27.6-26-34.2
	s-29.1-7.4-43.8-4.5c-23.7,4.6-42.8,19.5-45,44.5c-1.3,14.4,1.5,28.9,0.2,43.3c-0.3,3.5-0.9,7-1.9,10.4l-7.2,0.5l-54.4,3.9
	c-12,0.9-24,1.2-32.5,10.3c-9,9.8-14.9,22.1-16.7,35.3c-1.4,9.9,0.1,21.1,7.7,27.7c0.6,0.5,1.3,1,1.9,1.5h182.2
	c12.6,0.1,24.8-4.2,34.5-12.2c0.6-0.5,1.2-1,1.7-1.5C520.6,463.3,520.7,438.3,510.6,417.7z"/>
<path class="st2" d="M409.2,402.6c-4.5-4.3-9.3-8.3-13.5-12.9c-5.3-5.8-8.3-12.6-11.6-19.7c-3.5-7.6-6.2-15.7-6-24.1
	c0.5-10.7,5.2-20.7,13-28c4.4-4.2,11.2-7.8,12.2-14.1c0.9-6.1-0.5-13.1,3.2-18.5c5.2-7.7,19.7-0.5,24.2,4.7
	c5.9,6.8,5.2,18.2,13.3,23.3c3,1.9,6.8,2.4,10.1,3.7c3.2,1.2,6,3.2,8.2,5.7s3.9,5.6,4.7,8.9c1.6,6.2,1.5,12.7,6.2,17.5
	c5,5,9.6,9.3,12.2,16.2c1.9,5.3,3,10.9,3.3,16.5c1.2,13.4-8.5,25.2-19.9,31.5c-8.8,4.8-18.8,6.9-28.8,5.9c-8.3-0.8-19.1-3-24.4-9.6
	C413.7,407.1,411.5,404.8,409.2,402.6z"/>
<path class="st1" d="M394.3,358.3c-2.9,8.1-7.9,15.4-14.5,20.9c-6.6,5.6-14.6,9.3-23.1,10.7c1.8,3.4,3.2,7.1,4.1,10.9
	c11.7,0.1,23.9-3.1,32.2-11.3c8.3-8.2,11.6-22,5.7-32C398,356.3,394.8,357,394.3,358.3z"/>
<path class="st3" d="M388,351.5c2-5.3,5.5-10.5,8-15.4l4.4-8.4c1-1.9,2.1-5.9,4.3-6.7c1.8-0.7,3.8,0.9,5.5,1.4
	c2.3,0.8,4.8,1.5,7.1,2.3c4.7,1.7,9.3,3.8,12.8,7.6c1.9,1.9,3.3,4.1,4.3,6.6s1.4,5.1,1.3,7.8c-0.2,3.1-1.6,5.9-2.3,8.9
	c-0.7,3.5-0.9,7.1-0.7,10.7c0.3,11,1.1,22.1,2.6,33c0.4,1.9,0.3,3.9-0.2,5.7c-1.9,4.5-13.8,3.3-18,3.7c-6.8,0.6-14.5,2.2-20.9-0.9
	c-0.8-7-1.3-14-1.2-21c0-5.9,1.7-11.8-2-16.8c-3.2-4.4-7-8.3-6-14.1C387.1,354.4,387.5,353,388,351.5z"/>
<path class="st1" d="M402.8,318.8c0.2-1.8,0.2-3.6,0-5.5c-0.2-1.5-1.2-2.1-2.4-3c-4.8-3.9-5.7-10.1-4.2-15.9
	c0.2-0.6,0.3-1.2,0.4-1.9c0-0.6,0-1.2-0.1-1.8c-0.2-2.3,0.3-4.5,1.7-6.4c2.9-3.9,9.9-4.2,13.8-1.7c5.3,3.4,6,10.7,6.2,17
	c0.1,4.9,0.3,9.8,0.4,14.7c0.2,5.3,0.6,11.9-4.9,14.7c-1.9,1-4.1,1.2-6.2,0.6c-1.2-0.3-2.4-1-3.2-1.9
	C402.1,325.6,402.6,321.7,402.8,318.8z"/>
<path class="st2" d="M415.9,307.6c-2.9,2.8-6.7,4.5-10.7,4.8c3.6,1,7.4,1.2,11.1,0.5C416,311.2,415.9,309.4,415.9,307.6z"/>
<path class="st3" d="M271.2,485l7.7-8c2.9-2.8,5.5-5.8,7.8-9.1c1.9-2.9,3.3-6,4.3-9.3c0.8-2.9,1.2-6.2-0.2-8.9
	c-0.9-1.4-2.2-2.6-3.8-3.3c-1.5-0.7-3.3-1-5-0.8c-3.4,0.5-6.5,2-9.1,4.4c-5.8,4.9-9.3,11.1-12.7,17.6c-3.8,7.5-7.8,14.9-12,22.2
	c-0.8,1.4-2.7,4.1-2.5,5.8c0.3,1.7,2.7,2.3,4.6,2.4c4.3,0.4,8.4-0.3,11.4-3.5C264.9,491.5,268.1,488.3,271.2,485z"/>
<path class="st2" d="M249.5,487.1c-0.3-0.2-0.7-0.4-1.1-0.5s-0.8-0.1-1.2,0c-0.8,0.2-1.5,0.6-2.1,1.1c-5.9,4.1-12.5,7.1-19.5,8.9
	c-3.5,0.9-7.3,1.7-9.6,4.4c-1.8,2.1-0.1,4.1,2,5.1c3.3,1.2,6.9,1.6,10.3,0.9c8.3-1.3,16.7,0.9,25,0c6.3-0.7,8-5.3,9.7-10.8
	c0.3-0.8,0.6-1.7,0.8-2.5c-2-0.8-4.6-0.5-6.8-1.3c-1.9-0.6-3.6-1.7-5-3.1C251.2,488.5,250.4,487.7,249.5,487.1z"/>
<path class="st1" d="M436.4,406.6c-0.8-3.3-2-6.6-4.4-8.8c-2.4-2.1-6.5-2.4-8.5,0.1c-0.7,0.9-1.1,2-1.8,2.9c-2.1,2.6-7.3,0.8-10,0.8
	c-4.2-0.1-8.5,0.1-12.7,0.4c-10.3,0.7-20.6,1.6-30.8,2.5l-28.8,2.5c-4.9,0.4-9.8,1-14.7,1.4c-4.2,0.2-7.7-0.8-11.9,1.2
	c-3.4,1.8-6.6,4.1-9.4,6.7c-4.4,3.8-8.8,7.4-13.2,11.2c-2.5,2.2-4.9,4.4-7.3,6.7c-6.7,6.4-12.8,13.3-19,20.2
	c-5.2,5.8-10.3,11.6-15.5,17.5c9.7,7.8,18.9,16.2,27.5,25.1c1.6-1.4,3.1-3.1,4.1-4.1c2.3-2,4.5-4.2,6.7-6.3c1.2-1,2.1-2.3,2.6-3.8
	c0.3-1.2,0.2-2.4,0.5-3.6c0.8-3.9,5.1-5.9,8.1-8.5c4.4-3.7,5-9,7.9-13.6c2.5-4.2,7.6-6,11-9.5c3.2-3.2,4.8-7.7,7.5-11.4
	c2.2-3,7.7-7.1,11.4-4.4c3,2.2,2.6,7.2,6.2,9c2.5,1.2,5.5,1.2,8.1,1.6c9.1,1.6,18.2,2.5,27.4,3.4l15.6,1.5c8.7,0.8,17.6,1.7,26-0.8
	c3.5-1,6.8-2.6,9.6-4.9s5.2-5.1,6.9-8.3c0.8-1.6,1.4-3.3,1.8-5.1C439.1,421.4,438,413.1,436.4,406.6z"/>
<path class="st1" d="M444.6,345c10.2,5.7,11.8,18.2,12.1,29.3c0.2,5.7-0.2,11.6-2.3,16.9c-5.8,14.2-23.2,17.7-36.8,17.3
	c-17.6-0.6-34.9-4.2-51.3-10.6c-0.1-3,0.2-6,1-8.9c10.4,2.7,21.1,4.2,31.8,4.2c7.8,0.3,15.5-0.8,23-3.2c4.7-1.6,9.3-4.3,11.3-8.5
	c3.7-7.5-2.5-15.5-3.3-22.9c-0.5-2.6-0.4-5.3,0.3-7.8c0.4-1.1,1-2.1,1.6-3c0.8-1.5,2-2.7,3.4-3.7c1.1-0.6,2.3-0.9,3.6-0.9
	c1.2,0,2.5,0.2,3.6,0.8C443.2,344.3,443.9,344.6,444.6,345z"/>
<path class="st2" d="M312.8,407.2h71.8c0.5,0,0.9-0.1,1.4-0.4c2-1.1,1-3.7-1.4-3.7h-71.8c-0.5,0-0.9,0.1-1.4,0.4
	C309.4,404.6,310.3,407.2,312.8,407.2z"/>
<path class="st2" d="M312.3,407.3h68.1c0.2,0,0.4-0.1,0.5-0.2c0.2-0.1,0.3-0.2,0.4-0.4s0.1-0.4,0.1-0.5c0-0.2-0.1-0.4-0.2-0.5
	L358,371.6c-0.1-0.1-0.2-0.3-0.4-0.3c-0.2-0.1-0.3-0.1-0.5-0.1h-68.2c-0.2,0-0.4,0.1-0.5,0.1c-0.2,0.1-0.3,0.2-0.4,0.4
	c-0.1,0.2-0.1,0.4-0.1,0.5c0,0.2,0.1,0.4,0.2,0.5l23.2,34.1c0.1,0.1,0.2,0.3,0.4,0.3C311.9,407.3,312.1,407.3,312.3,407.3z"/>
<path class="st2" d="M403.4,288.7c2-0.6,4.1-0.5,6,0.2c2.2,0.8,4.1,2.3,5.5,4.2c1.7,2.3,1.8,4.4,2.1,7.2c0.6,6.4,1.2,12.9,1.7,19.3
	c0,1.1,0.3,2.1,0.7,3c0.8,1.2,2,2,3.4,2.3c1.2,0.4,2.4,0.6,3.6,0.5c1.2-0.1,2.4-0.4,3.6-1c1-0.7,1.9-1.6,2.6-2.7
	c0.7-1.1,1.1-2.2,1.2-3.5c0.3-2.5,0.3-5-0.2-7.4c-0.9-7.8-1.4-14.9-4.6-22.2c-2.6-5.9-9-9.2-15.3-10.2c-5.6-0.9-11.4-0.4-16.7,1.5
	c-1.8,0.5-3.4,1.5-4.7,2.8c-1.9,2.3-1.7,4.9,1.1,5.7c1.9,0.7,4,1,6,0.9C400.8,289.3,402.1,289,403.4,288.7z"/>
<path class="st4" d="M413.6,297.2c0.2-0.5,0.6-0.9,1-1.3s0.9-0.6,1.4-0.8s1-0.2,1.6-0.2c0.5,0,1.1,0.2,1.5,0.4c2.2,1.4,1.8,4.4,0,6
	c-0.4,0.4-0.9,0.6-1.4,0.8s-1.1,0.2-1.6,0c-0.5-0.1-1-0.4-1.4-0.7c-0.4-0.3-0.7-0.8-0.9-1.3c-0.1-0.4-0.2-0.9-0.1-1.3
	c-0.2-0.2-0.2-0.5-0.2-0.8C413.3,297.8,413.4,297.5,413.6,297.2z"/>
<path class="st3" d="M434.6,365.6l2.5-0.9c0-0.1,0.1-0.2,0.1-0.2c0.1-0.1,0.1-0.1,0.2-0.2c6.3-2.3,12.4-5,18.6-7.4
	c-1.6-4.4-3.6-8.6-5.9-12.6c-1.7-3.6-4.1-6.9-7-9.6c-3.5-3.3-7.4-6.1-11.6-8.3c-1.1-0.5-13.1-5.6-13.2-5.3c-0.9,3.2-1.6,6.4-2,9.7
	c-0.1,2.1-0.3,4.3-0.6,6.4c-1,3.4-0.6,7.1,1,10.3c2.5,4.4,4.8,8.9,7.5,13.2l4.4,7c1.6-0.7,3.3-1.3,5.1-1.7L434.6,365.6z"/>
<path class="st2" d="M399.6,305c0.7,0.6,1.6,0.9,2.5,0.9s1.8-0.3,2.5-0.9c0.3-0.3,0.2-0.8,0.3-1.2c0-0.4-0.3-0.9-0.7-0.8
	c-0.1,0-0.2,0-0.4,0.1C402.6,303.6,400.8,304.4,399.6,305z"/>
<path class="st5" d="M334.8,385.5c-0.4-0.3-0.9-0.4-1.3-0.5c-0.5-0.1-1-0.1-1.4,0c-0.5,0.1-0.9,0.3-1.3,0.6c-0.4,0.3-0.7,0.6-1,1
	s-0.4,0.9-0.5,1.3c-0.1,0.5-0.1,1,0,1.4c0.1,0.5,0.3,0.9,0.6,1.3s0.6,0.7,1,1"/>
<path class="st3" d="M360.3,461.3c-1.8-5.2-3-10.7-4.6-16c-0.6-2.4-1.7-4.7-3-6.8c-1.4-2.1-3.5-3.7-6-4.2c-4.2-0.8-8.4,2.2-10.4,6.1
	c-5,10-0.7,21,5.8,29c2.2,2.7,4.6,5.3,6.9,7.9c2.3,2.7,4,6.2,6.3,8.7c3.6,3.9,9.9,1.4,12.9-2.2c3.5-4.2-1-9.9-3.5-13.4
	C362.9,467.6,361.4,464.6,360.3,461.3z"/>
<path class="st2" d="M367,476.2l-0.7,0.5c-3.5,2.4-7.2,4.5-11,6.4c-0.9,0.4-1.7,1.1-2.3,1.9c-1,1.5,0.1,2.5,0.3,4
	c0.6,4.5,0.2,9.1-1.2,13.4c-1.4,4.1-6.4,9.8-5.2,14.4c0.8,3,5.1,2.6,7.4,1.9c3.4-1.1,6.3-3.5,8.1-6.6c1.8-3,3.2-6.3,4.8-9.5
	c1.5-2.9,3.2-5.7,5.2-8.3c1-1.2,1.9-2.5,2.6-3.8c0.6-1.5,0.8-3.1,0.5-4.7s-1-3-2.1-4.2c-1.1-1.3-1.9-2.8-3-4.1
	C369,475.6,368.5,475.2,367,476.2z"/>
<path class="st1" d="M318,439.8c0.6,1.5,0.9,3.1,1.4,4.6c1,2.7,2.2,5.2,3.7,7.6c3.5,6,7,11.9,10.5,17.9l5.3,9
	c0.2,0.4,0.6,1.2,1.1,2.2c9.5-5.6,18.8-11.5,27.8-17.7c-2-3.3-4.4-6.6-4.8-10.4c-0.2-1.9,0-3.9-0.2-5.9c-0.6-4.7-3.9-8.5-6.8-12.3
	c-5-6.8-8.6-14.6-12.9-22c-0.5-0.9-1-1.7-1.6-2.6c-2.9-4.9-6.5-9.3-10.7-13.1c-2.2-1.8-4.5-3.3-6.9-4.7c-2.1-1.2-3.6-2.9-5.8-3.8
	c-9.7-4-17.3,3.8-17.6,13.6c-0.2,6.9,2.9,13.5,6.3,19.6c2.4,4.2,4.9,8.2,7.6,12.1C315.9,435.8,317,437.7,318,439.8z"/>
<path class="st2" d="M424,353.9c0.6,8.1-0.2,16.2-2.5,24c0.4-1.5,4.5-4,5.7-5.2s4.5-3.7,4.7-5.7s-2.2-4.7-3.1-6.1
	C427.4,358.4,425.7,356.1,424,353.9z"/>
<path class="st4" d="M418.6,314.5c0.2,5.3,0.6,11.9-4.9,14.7c-1.9,1-4.1,1.2-6.2,0.6"/>
<path class="st6" d="M418.6,314.5c0.2,5.3,0.6,11.9-4.9,14.7c-1.9,1-4.1,1.2-6.2,0.6"/>
<path class="st4" d="M412.1,448.4c12-2,23.6,5.3,35.8,6.3L412.1,448.4z"/>
<path class="st6" d="M412.1,448.4c12-2,23.6,5.3,35.8,6.3"/>
<path class="st4" d="M440.7,444.6c6.3,1.7,12.9,2,19.3,0.9L440.7,444.6z"/>
<path class="st6" d="M440.7,444.6c6.3,1.7,12.9,2,19.3,0.9"/>
<path class="st6" d="M464.9,402.9c1.3,10.6-1.7,21.4-8.2,29.9"/>
<path class="st2" d="M286.8,485.8c-0.4-3-0.8-10.9-4.5-12.1c-8.6-2.7-3.2,18.2-2.4,20.9c0.1,0.2,0.2,0.5,0.3,0.7
	c0.2,0.2,0.3,0.4,0.6,0.5c0.3,0.8,0.8,1.5,1.4,2.1c0.6,0.6,1.3,1,2.1,1.3c0.3,0.1,0.7,0.1,1.1,0c0.4-0.1,0.7-0.3,0.9-0.5
	c0.2-0.2,0.4-0.5,0.6-0.8c0.2-0.2,0.4-0.4,0.5-0.7c0.1-0.3,0.2-0.6,0.2-0.8v-0.1C288.3,493.1,287.2,488.5,286.8,485.8z"/>
<path class="st2" d="M267.3,466.6c-2.9,0.2-5.9,3.6-7.8,5.5c-2.9,2.8-5.4,6-7.6,9.4c-0.2,0.2-0.3,0.5-0.3,0.7c0,0.3,0,0.5,0,0.8
	c0.1,0.3,0.2,0.5,0.4,0.7c0.2,0.2,0.4,0.4,0.6,0.5c0.7,2.2,3.3,2.5,5.5,2c3.3-0.9,6.2-2.9,8.3-5.7c1.9-2.4,4.3-5.6,4.7-8.6
	C271.5,469.4,270.2,466.4,267.3,466.6z"/>
<path class="st2" d="M292.1,450.7c-5,0.3-14.4,0.4-17.3,5.5c-0.3,0.4-0.5,0.9-0.5,1.5c-0.1,0.5-0.1,1,0.1,1.6c0.1,0.5,0.4,1,0.7,1.4
	c0.3,0.4,0.7,0.8,1.2,1c2.7,1.9,6.3,1.1,9.2,0.3c0.4-0.1,0.8-0.4,1.1-0.7c2.3-0.5,4.5-1.4,6.5-2.5s4.5-2.7,4.2-5.2
	C297,451,294.2,450.6,292.1,450.7z"/>
<path class="st2" d="M295.2,433.3c-1.6-4.4-5.2-8-8.9-10.6c-0.2-0.2-0.5-0.3-0.7-0.3c-0.3-0.1-0.5,0-0.8,0c-0.3,0.1-0.5,0.2-0.7,0.4
	c-0.2,0.2-0.4,0.4-0.5,0.7c-0.7-0.2-1.5-0.2-2.3,0c-0.7,0.2-1.4,0.7-1.9,1.2c-2.6,2.9-1.3,8.2,0.6,11.1c2,3.2,7.2,6.8,11.2,6.3
	C295.4,441.6,296.5,436.8,295.2,433.3z"/>
<path class="st2" d="M260.6,450.5c-0.4-0.1-0.8-0.1-1.2,0c-0.4-0.1-0.9-0.1-1.3,0c-0.4,0.1-0.8,0.3-1.2,0.6
	c-0.3,0.3-0.6,0.6-0.8,1.1c-0.2,0.4-0.3,0.8-0.3,1.3c0,2.5,1.9,5.2,3.7,6.8c2.1,1.9,4.8,3,7.6,3.3c0.5,0,1.1-0.2,1.4-0.6
	c0.4-0.4,0.6-0.9,0.6-1.4c-0.1-2.5-0.9-4.9-2.4-6.9C265.1,452.6,263,451.2,260.6,450.5z"/>
<path class="st2" d="M317.7,446.4c-0.8-1.4-1.3-2.9-2.6-3.7c-0.8-0.4-1.7-0.6-2.5-0.6c-0.9,0.1-1.7,0.4-2.4,1
	c-3,2.2-4.7,6.5-5.2,10.1c-0.4,2.9-0.5,7.8,3.1,8.7c2.7,0.6,4.3-1.3,5.5-3.5c0.9-1.2,1.7-2.5,2.2-3.9c0.7-1.7,1.1-3.6,1.3-5.5
	c0.2-0.1,0.4-0.3,0.6-0.5s0.3-0.4,0.3-0.7c0.1-0.3,0.1-0.5,0-0.8C317.9,446.8,317.8,446.6,317.7,446.4z"/>
<path class="st2" d="M391.2,436.6c-2.7-3.3-7.2,0.7-9.4,2.5c-1.8,1.5-3.5,3.3-5.1,5.1c-1,1.2-2.8,2.9-2.6,4.6c0,0.2,0.1,0.3,0.1,0.5
	c-0.1,0.4-0.2,0.8-0.2,1.2c0,0.5,0.2,1.1,0.6,1.4c0.4,0.4,0.9,0.6,1.4,0.6c4.2,0,8.2-3.7,11-6.4
	C389.1,444.2,393.8,439.9,391.2,436.6z"/>
<path class="st2" d="M374.7,419.7c-2.6-2.2-6.5-4-10-3.5c-4.1,0.6-5.2,4-3.6,7.5c0.3,0.7,0.7,1.4,1.1,2c0,0.1,0.1,0.2,0.1,0.3
	c0.7,1.7,1.8,3.3,3.2,4.5s3.1,2.1,4.9,2.6c2.7,0.7,9.3,0.7,9.9-3.1S377.5,421.8,374.7,419.7z"/>
<path class="st2" d="M412,415c-1.6-4-7-4.6-10.6-4.2c-3.1,0.3-9,0.8-11.2,3.6c-1.7,1.4-2.9,3.4-1.5,5.4c1.7,2.5,6.9,2.6,9.6,2.7
	c2.8,0.1,5.5-0.4,8-1.7C409.3,420.2,413.4,418.4,412,415z"/>
<path class="st2" d="M413.6,432.6c-2.8-3.2-8.4-3.7-10.4,0.6c-1.2,2.6-0.6,5.5,0.7,8.2c0.5,2.2,1.7,4.2,3.4,5.8l0.6,0.9
	c0.2,0.3,0.4,0.5,0.7,0.7s0.6,0.3,1,0.3c0.3,0,0.7-0.1,1-0.2s0.6-0.4,0.8-0.6c1.2-0.1,2.3-0.5,3.3-1.1s1.8-1.5,2.4-2.5
	C418.7,441.2,416,435.2,413.6,432.6z"/>
<path class="st2" d="M442.2,422.8c0-0.2,0-0.5,0-0.7s-0.1-0.4-0.3-0.6c-0.1-0.2-0.3-0.3-0.5-0.4s-0.4-0.2-0.7-0.2
	c-5-0.7-10.4-1.5-15.1,0.6c-2.4,1.1-5.5,4-4,7c1.9,3.6,8.9,3.9,12.3,4.1c3.6,0.1,8.6-0.8,10.5-4.4
	C445.8,425.7,444.5,424,442.2,422.8z"/>
<path class="st2" d="M360.9,436.4c-0.5-2.2-2.4-3-4.4-2.9c-0.2-0.4-0.5-0.8-0.9-1s-0.9-0.2-1.4-0.1c-4.3,1-8.2,3.5-10.9,7
	c-1.9,2.4-4.5,6.6-1.1,9c3.3,2.4,8.7-1,11.5-3C356,443.7,361.6,439.8,360.9,436.4z"/>
<path class="st2" d="M346.3,460.7c-7.1,0.9-12.8,9.2-16.7,14.4c-0.2,0.3-0.4,0.6-0.4,1s0.1,0.7,0.4,1c-0.2,0.5-0.3,0.9-0.3,1.4
	s0.1,1,0.3,1.4c2.9,6.1,13.3-4.3,15.5-6.8c2-2.1,5.2-5.5,5.6-8.4C351.3,461.8,348.9,460.3,346.3,460.7z"/>
<path class="st2" d="M332.2,435c-0.1-0.3-0.2-0.6-0.5-0.8c-0.2-0.2-0.5-0.4-0.8-0.5s-0.6-0.2-0.9-0.2c-0.3,0-0.6,0.1-0.9,0.3
	c-6.7,4.2-7.4,14.9-7,21.9c0,0.4,0.2,0.8,0.4,1.2c0.3,0.3,0.6,0.6,1,0.7c0.2,0.8,0.7,1.4,1.3,1.9c0.6,0.5,1.4,0.7,2.2,0.6
	c4.1-0.1,5.7-6.5,6.3-9.6C334.7,445.4,334.2,440,332.2,435z"/>
<path class="st2" d="M349.3,409.7c-0.1-0.4-0.3-0.8-0.7-1c-0.3-0.3-0.8-0.4-1.2-0.3h-0.2c-3.7-1.6-7.9-2.1-11.9-1.3
	c-4.7,0-10.4,1.8-10.2,7c0.2,6.5,13.2,4.1,17,3.4C345.1,416.9,353.8,413.4,349.3,409.7z"/>
<path class="st2" d="M318.5,418.6c-0.5,0.2-0.9,0.4-1.4,0.5c-1,0.3-2,0.7-2.9,1.4c-1.6,0.8-3.1,1.8-4.5,2.9
	c-2.3,1.8-5.6,4.4-6.5,7.3c-0.8,2.5,1.2,4.4,3.6,4.4c2.7,0,5.6-1.8,7.7-3.4c1.7-1.4,7.1-7.1,6.5-10.4
	C321.2,419.7,320.1,417.9,318.5,418.6z"/>
<path class="st2" d="M318,396.1c-0.8-3.9-3.7-2.9-6.4-2.5c-0.3,0-0.7,0-1,0c-2.7,0.2-5.1,4.1-6.3,6.3c-1.5,2.7-2.7,6.4-1.1,9.3
	c3.4,6.2,10.6-1.7,12.5-5C317.1,402,318.6,398.8,318,396.1z"/>
<path class="st1" d="M547.7,79.6h-251v151.5h251.1L547.7,79.6L547.7,79.6z"/>
<path class="st3" d="M315.5,224.2c-1.3-8.1,0.3-16.8,5.5-23.1c2.4-2.9,5.6-5.4,7.2-8.9c0.7-1.8,1.1-3.7,1.3-5.6
	c1-10.5-0.8-22.1,4.9-31c2.3-3.6,5.6-6.5,8.2-9.9c4.7-6.3,6.4-14.4,10.5-21c4.2-6.7,12.8-12,19.7-8.3s7.4,13.2,5.3,20.6
	s-6.1,14.6-5.4,22.2c0.6,6.7,4.8,12.6,5.6,19.3c0.8,7.4-2.6,14.6-2.7,22c-0.2,9.4,4.7,18.5,3.6,27.8c-1.1,9.3-8,16.8-16.3,20.8
	c-8.7,4.2-27.9,8.4-36.4,1.6C320.3,245.7,316.6,231.2,315.5,224.2z"/>
<path class="st3" d="M438.3,232.4c-1.3-8.1,0.3-16.8,5.5-23.1c4.3-5.2,8-7,7.8-13.9c-0.2-8.7-3.2-16.5-1.8-25.4
	c1.8-11.9,8.7-22.5,11.1-34.3c2-9.6,1.4-20.2,7.4-27.8c1.8-2.4,4.4-4.1,7.3-4.6c7.3-1,12.5,7.5,12.9,14.9s-1.9,15,0.2,22.1
	c2.3,7.6,9.2,13.3,10.8,21.1c1,4.6,0,9.4,0.6,14c0.5,4,2.2,7.6,3.6,11.4c7.8,21.5,5.3,59.2-18.2,70.4c-8.7,4.2-27.9,8.4-36.4,1.6
	C443.1,253.9,439.4,239.4,438.3,232.4z"/>
<path class="st3" d="M471.8,244.7L471.8,244.7c0.1-8.8,2.2-17.5,6.1-25.3c6.4-13,17.5-23.9,20.2-38.2c1.3-6.8,0.4-13.9,0.7-20.9
	s2-14.4,7.1-19.1c2.4-2.2,6.1-3.6,8.9-2c1.5,1.1,2.6,2.6,3.2,4.4c2.7,7.1,2.6,14.9,3.6,22.5c1.6,11.9,10.5,17.9,11.9,29.5
	c1.5,13.1-0.4,26.4-4.2,39c-4.2,13.7-7.5,28.1-21.8,34.9c-12.2,5.8-24.1,7.6-31.5-5.8C472.9,257.8,471.5,251.3,471.8,244.7z"/>
<path class="st2" d="M355.5,228.1c-0.2-3.2,1.6-6.1,3.4-8.7c7-9.8,15.8-18.2,22.2-28.4c3.5-5.6,7.5-11,8.9-17.7
	c0.5-3.3,0.8-6.6,0.7-9.9c0-6.6,0.9-13.2,2.7-19.6c3.1-9.6,9.7-18.1,18.8-22.4c15-7.2,38.2-6.6,46.4,10.7c3.2,6.7,3.8,14.5,3.9,21.8
	c0,8.9-1,17.8,0.2,26.6c1.4,9.9,7,16,14.2,22.3c5,4.4,8.8,8.5,9.6,15.2c0.8,6.4-2.1,12.7-6.4,17.3c-6,6.5-14.4,10.5-23,12.7
	s-17.5,2.7-26.4,3.2c-10.1,0.6-20.3,1.3-30.3,0.1c-10.1-1.1-20.1-4.2-28.1-10.4c-3-2.3-5.7-5-9.2-6.6
	C359.9,232.8,355.8,233.1,355.5,228.1z"/>
<path class="st1" d="M428.4,239.5c-4.1,0.5-8.3,0.8-12.4,0.7c-2.4,0-6.1,0.2-8.1-1.5c-2-1.6-2.1-4.4-2.1-6.6
	c-0.2-7.7,1.4-15.4,2.2-23c0.6-6.2,0.7-12.6-1.2-18.6c-1.7-5.5-4.4-10.2-5.2-16.1c-0.2-1.4,0-4.6-0.9-5.7c-0.9-1.1-2.5-0.9-3.4-2
	c-0.9-1.2-1.3-2.7-1.1-4.2c0.1-1.7,0.7-3.3,1.7-4.6c1-1.4,2.3-2.5,3.8-3.1c0.1,0,0.1-0.1,0.1-0.1c0-0.1,0-0.1,0-0.2
	c-0.9-9.6,3.1-19.6,11.6-24.3c8.7-4.8,18.7-8.3,27.9-2.2c4.5,3.1,7.7,7.7,9,12.9c0.5,1.6,2,16.5,2.1,17.2c0.7-0.1,1.5,0,2.2,0.3
	s1.2,0.8,1.6,1.4c0.8,1.3,1.2,2.7,1.2,4.2c0.1,1.5-0.3,3-1.1,4.3s-2,2.3-3.3,2.9c-3.4,1.4-2.5,4.9-3.3,8.2c-1,4.1-2.9,7.9-5.5,11.2
	c-0.6,0.7-1.1,1.5-1.5,2.3c-0.3,1-0.4,2.1-0.2,3.1c0.6,11,0.8,22,0.8,33c0,3.3-0.5,6-3.5,7.6C436.1,238.6,432.2,239,428.4,239.5z"/>
<path class="st2" d="M412.5,128.8c-4.5,1.8-8.3,4.9-10.9,9c-2.5,4.4-3.5,9.4-3.1,14.4c0.2,1.6,1.3,3.5,2.9,3.3
	c1.3-0.2,2-1.5,2.7-2.6c4.6-7,15.7-8.5,23.4-9c2-0.1,3.9-0.2,5.9-0.1c5.3,0.1,10.5,1.5,15.7,1.8c4.1,0.2,8.6-2.7,11.2-5.7
	c2.8-3.2,4.4-7.4,4.4-11.7c0.1-1.9-0.5-3.8-1.5-5.4c-1.8-2.4-5.2-3.4-8.1-3.2c-2.7,0.1-5.4,0.6-8,1.4c-2.6,1.1-5.2,1.9-8,2.4
	c-2.8,0.3-5.7,1-8.5,1.5C424.5,125.6,418.2,126.3,412.5,128.8z"/>
<path class="st2" d="M428.5,187c-2.4,0.7-4.3,1.4-6.7,0.4c-0.7-0.3-1.1,0.9-0.5,1.2c2.4,1.1,5.8,1.4,7.8-0.5
	c0.1-0.1,0.2-0.2,0.2-0.4c0-0.1,0-0.3-0.1-0.4c-0.1-0.1-0.2-0.2-0.3-0.3S428.6,186.9,428.5,187z"/>
<path class="st2" d="M428.1,171.4h-0.6l-4.4,0.7c-5.2,0.8-1.6,7.4,2.5,6.4c0.8-0.2,1.5-0.5,2.1-1c0.7-0.7,1.3-1.6,1.7-2.6
	c0.3-0.6,0.5-1.2,0.5-1.8c0-0.3,0-0.6-0.2-0.9c-0.1-0.3-0.3-0.5-0.6-0.7C428.8,171.4,428.4,171.3,428.1,171.4z"/>
<path class="st2" d="M425.1,166.9c-1,0,0-6,0.1-6.8c0.2-1.8,0.1-3.7-0.2-5.5c0-0.3-0.5-0.2-0.5,0c-0.2,3.8-1,7.4-1.2,11.2
	c-0.1,1.4,0.4,2.7,1.9,2.3c0.1-0.1,0.2-0.2,0.2-0.3c0.1-0.1,0.1-0.2,0.1-0.4c0-0.1-0.1-0.2-0.2-0.3
	C425.4,167,425.3,166.9,425.1,166.9z"/>
<path class="st2" d="M413.5,159.5c-0.1-0.2-0.2-0.4-0.3-0.5c-0.2-0.1-0.4-0.2-0.6-0.2h-0.1c-0.2,0-0.4,0-0.5,0.1
	c-0.2,0.1-0.3,0.2-0.4,0.4c0,0,0,0,0,0.1c-0.1,0.2-0.2,0.4-0.2,0.6c0,0.2,0,0.4,0.1,0.6l0.1,0.1c0.6,0.8,2.1,0.6,2-0.5
	C413.6,160,413.6,159.8,413.5,159.5z"/>
<path class="st2" d="M438,158.3c-0.9-0.8-2.3,0.5-1.4,1.4c0,0.1,0.1,0.3,0.2,0.4c0.1,0.1,0.2,0.2,0.3,0.3s0.3,0.1,0.4,0.1
	c0.2,0,0.3,0,0.4-0.1c0.1-0.1,0.3-0.2,0.3-0.3c0.1-0.3,0.2-0.6,0.1-0.9C438.4,158.8,438.2,158.5,438,158.3z"/>
<path class="st2" d="M431.2,199.4c3.5,2,7.1,3.8,10.8,5.4c0.3,0.1,0.7,0.2,1,0.2s0.7-0.1,1-0.3s0.5-0.4,0.7-0.7s0.3-0.6,0.3-1
	c0.1-3.4,0.6-6.8,1.4-10.2c0.5-1.7,2-3.1,2-4.9c0-0.2,0-0.5-0.2-0.7s-0.4-0.4-0.7-0.5s-0.6,0-0.9,0.1c-0.5,0.3-1,0.7-1.4,1.2
	c-3.8,4.5-7.8,6.2-13.4,7.5c-0.4,0.1-0.8,0.3-1.1,0.6s-0.5,0.7-0.5,1.1c-0.1,0.4,0,0.9,0.2,1.2C430.5,198.8,430.8,199.1,431.2,199.4
	z"/>
<path class="st6" d="M547.7,79.6h-251v151.5h251.1L547.7,79.6L547.7,79.6z"/>
<path class="st2" d="M304.2,70.4h236c2.2,0,4.3,0.9,5.8,2.4s2.4,3.6,2.4,5.8v10.3H295.9V78.6c0-1.1,0.2-2.2,0.6-3.2
	c0.4-1,1-1.9,1.8-2.7c0.8-0.8,1.7-1.4,2.7-1.8C302.1,70.6,303.1,70.4,304.2,70.4z"/>
<path class="st4" d="M307.6,85.6c2.8,0,5-2.3,5-5s-2.3-5-5-5c-2.8,0-5,2.3-5,5S304.8,85.6,307.6,85.6z"/>
<path class="st4" d="M331.2,80.4c0,1-0.2,2-0.7,2.8c-0.5,0.9-1.3,1.5-2.2,1.9c-0.9,0.4-1.9,0.6-2.9,0.4s-1.9-0.6-2.6-1.3
	c-0.7-0.7-1.3-1.5-1.5-2.5s-0.2-2,0.2-2.9c0.3-0.9,1-1.7,1.8-2.3c0.8-0.6,1.8-0.9,2.8-1c1.3-0.1,2.6,0.4,3.6,1.3
	C330.6,77.8,331.2,79,331.2,80.4z"/>
<path class="st4" d="M331.2,80.4c0,1-0.2,2-0.7,2.8c-0.5,0.9-1.3,1.5-2.2,1.9c-0.9,0.4-1.9,0.6-2.9,0.4s-1.9-0.6-2.6-1.3
	c-0.7-0.7-1.3-1.5-1.5-2.5s-0.2-2,0.2-2.9c0.3-0.9,0.9-1.7,1.8-2.3c0.8-0.6,1.8-0.9,2.8-1c1.3-0.1,2.6,0.4,3.6,1.3
	C330.6,77.8,331.2,79,331.2,80.4z"/>
<path class="st6" d="M320.3,74.5L332,86.8"/>
<path class="st6" d="M320,86.5l12.3-11.7"/>
<path class="st1" d="M257.1,27.1H72.9v151.5h184.2V27.1z"/>
<path class="st3" d="M92.6,82.2c-0.4-2.7-0.3-5.4,0.5-8.1c0.8-2.6,2.1-5,4-7c1.4-1.4,2.7-2.3,3.6-4.1c0.3-0.8,0.5-1.7,0.6-2.6
	c0.6-2.7,1.7-5.2,3.3-7.4c1.6-2.2,3.7-4,6-5.4c5.1-3.2,10.2-3.3,16.1-4.3c1.7-0.3,3.4-0.8,5.1-1.1c1.6-0.3,3.3-0.3,5-0.1
	c4.8,0.7,9.3,2.7,13,5.9c2.4,2.1,4.4,4.6,5.8,7.4c1.4,2.2,1.9,4.7,3.2,7c1.4,2.5,3.2,2.5,5.6,3.6c2.2,1.1,4.1,2.6,5.6,4.6
	c1.5,1.9,2.5,4.2,2.9,6.6c2,11.9-10.2,20.5-21,18c-8.2-1.8-20.5-1.8-26.7,4.6c-2.6,2.6-4.8,5.7-7.8,7.8c-0.3,0.2-0.6,0.4-1,0.6
	c-2.8,1.6-6,2.5-9.2,2.6s-6.5-0.6-9.3-2.1c-7.7-4.2-7.1-13.1-4.6-20.4c0.3-0.7,0.4-1.4,0.5-2.1c-0.1-0.6-0.2-1.2-0.5-1.8
	C93,83.8,92.8,83,92.6,82.2z"/>
<path class="st1" d="M129.6,128.5c3,6,9.6,8.9,16.7,8h0.2c1.8-0.3,3.5-0.9,5.1-1.9s2.9-2.3,3.9-3.8s1.8-3.2,2.1-5
	c0.4-1.8,0.4-3.7,0-5.5l-2.4-12.4c-0.4-1.6-0.5-3.3-0.2-5c0.5-1.4,1.2-2.8,2.1-4.1c5.5-9.9-0.7-21.1-5.8-29.7
	c-2-3.5-4.9-6.4-8.3-8.5s-7.3-3.3-11.3-3.5c-17.6-0.7-26.3,15.3-22.9,31c2,8.9,7.3,15.3,14.2,21C129.8,114.8,130.2,120,129.6,128.5z
	"/>
<path class="st3" d="M113,72.7c-0.3,1.3-0.4,2.7-0.2,4.1c0.4,3.3-0.2,6.6-1.6,9.6c-0.8,1.4-1.8,2.7-3,3.7c-1,1-2.1,1.8-3.4,2.3
	c-0.6,0.2-1.4,0.3-2,0.2c-0.7-0.1-1.3-0.3-1.9-0.7c-0.5-0.5-1-1.1-1.2-1.8c-0.3-0.7-0.3-1.4-0.3-2.1c0.2-1.4,0.5-2.9,1-4.2
	c0.7-2.6,1-5.3,1.7-7.8c0.6-2.6,2.1-5,4.2-6.7c0.8-0.6,1.7-1,2.7-1.1c1-0.2,2-0.1,2.9,0.2c0.7,0.2,2.1,0.8,2.4,1.6
	C114.5,71,113.4,71.6,113,72.7z"/>
<path class="st3" d="M117.8,71.4c1.8-0.5,3.5-1.1,5.1-2c0.4-0.2,0.8-0.4,1.3-0.4c0.4,0,0.8,0.1,1.1,0.3c2.5,1.4,5.2,2.3,8,2.7
	c2.8,0.2,6-1.1,6.9-3.8c0.1-0.4,0.3-0.8,0.7-0.9c0.1,0,0.3,0,0.4,0.1s0.2,0.1,0.3,0.3c3.2,2.7,6.5,7.4,11.4,5.2
	c2.6-1.2,3.9-4.1,4.1-7c0.3-6.3-4.3-12-10.1-14.6c-5.7-2.6-12.3-2.6-18.5-1.8c-4.4,0.5-8.7,1.6-12.8,3.5c-4.3,2.1-5.9,5.5-8.3,9.6
	c-0.6,0.9-1,1.9-1.2,3s-0.1,2.2,0.3,3.3c1.4,3,5.3,3.6,8.5,3.1C115.9,71.9,116.9,71.7,117.8,71.4z"/>
<path class="st2" d="M144.7,107.9c-0.5,0.2-1,0.5-1.6,0.6c-0.7,0.2-3.6,0.3-3.9,0.7c-0.8,1.2,2.2,1.5,2.7,1.6c1.3,0.2,2.6,0.5,3.8,1
	c0.9,0.4,1.9,0.9,2.7,1.5l3.4,2c-0.8-3.8-1.2-7.6-1.4-11.4c0,0.5-2.8,2.2-3.3,2.6C146.5,107,145.6,107.5,144.7,107.9z"/>
<path class="st2" d="M122,83.4c-0.2-0.1-0.5-0.1-0.7,0s-0.5,0.2-0.6,0.4c-0.1,0.1-0.1,0.2-0.2,0.3c0,0.1,0,0.2,0,0.4
	c0,0.1,0.1,0.2,0.1,0.3c0.1,0.1,0.2,0.2,0.3,0.2c0.1,0.1,0.2,0.2,0.3,0.2s0.2,0.1,0.4,0.1c0.2,0,0.3,0,0.5-0.1s0.3-0.2,0.4-0.3
	c0.1-0.1,0.2-0.3,0.3-0.4c0.1-0.2,0.1-0.3,0.1-0.5s-0.1-0.3-0.2-0.5C122.3,83.5,122.2,83.5,122,83.4z"/>
<path class="st2" d="M144.3,80.1c-0.2-0.2-0.4-0.4-0.7-0.5c0-0.1-0.1-0.1-0.1-0.2s-0.1-0.1-0.2-0.1s-0.1,0-0.2,0s-0.1,0.1-0.2,0.1
	c-0.5,0.5-0.6,0.6-0.5,1.4c0,0.1,0.1,0.2,0.2,0.3c0.1,0.1,0.2,0.2,0.3,0.2c0.3,0.1,0.5,0.1,0.8,0s0.5-0.3,0.6-0.5
	c0.1-0.1,0.1-0.3,0.1-0.4C144.4,80.4,144.4,80.2,144.3,80.1z"/>
<path class="st2" d="M136.4,86.5c-0.4-1.5-1.4-3-1.6-4.6c0-0.1,0-0.2-0.1-0.3c-0.1-0.1-0.2-0.1-0.3-0.1c-0.1,0-0.2,0-0.3,0.1
	c-0.1,0.1-0.1,0.2-0.1,0.3c0,1.3,0.3,2.6,0.8,3.8c0.4,1.5,0.4,3,0.8,4.4c0.2,0.6,1.1,0.7,1.3,0C137,88.9,136.8,87.6,136.4,86.5z"/>
<path class="st2" d="M146,78.4c-1-0.7-2.1-1-3.3-0.9c-1.2,0.1-2.3,0.6-3.2,1.4c-0.1,0.1-0.1,0.2-0.1,0.3c0,0.1,0,0.2,0.1,0.3
	c0.1,0.1,0.1,0.1,0.2,0.1s0.2,0,0.3,0c0.8-0.5,1.8-0.9,2.7-1.1c1,0,2,0.2,2.9,0.5c0.1,0,0.1,0,0.2,0s0.1-0.1,0.2-0.1
	c0-0.1,0.1-0.1,0-0.2C146.1,78.5,146.1,78.4,146,78.4z"/>
<path class="st2" d="M121.7,81c-1.5-0.1-3,0.4-4.1,1.4c-0.1,0.1-0.1,0.2-0.1,0.3c0,0.1,0,0.2,0.1,0.3c0.1,0.1,0.1,0.2,0.2,0.2
	s0.2,0.1,0.3,0c1.7-0.4,4.2-1.9,5.8-0.6c0,0,0.1,0.1,0.2,0.1s0.1,0,0.2,0s0.1-0.1,0.1-0.1c0-0.1,0-0.1,0-0.2
	C124.2,81.2,122.7,81.1,121.7,81z"/>
<path class="st2" d="M135.6,98.8c-0.1-0.4,0-0.8,0.2-1.1c0.3-0.6,0.6-1.1,1-1.7c0.5-0.8,1.2-1.5,2-1.9c0.4-0.2,0.9-0.2,1.4-0.1
	c0.4,0.1,0.8,0.4,1.1,0.8c0.1,0.4,0.2,0.9,0.1,1.3s-0.3,0.8-0.5,1.2C140.2,98.5,136.4,101.3,135.6,98.8z"/>
<path class="st4" d="M152.5,66.9c-2-0.1-4-0.6-5.8-1.7c-1.1-0.8-3.9-3.3-3.7-4.8c0.1-0.4-0.5-0.8-0.8-0.3c-1,1.9,1.5,4.4,2.7,5.7
	c2,2.1,4.8,2.6,7.5,3C153.7,69,153.7,67,152.5,66.9z"/>
<path class="st4" d="M131.3,65.3c-1.3-0.2-2.6-0.7-3.7-1.4c-1-0.7-3.5-2.6-2.5-3.9c0.3-0.3-0.2-0.8-0.5-0.5
	c-1.4,1.5,0.2,3.4,1.3,4.5c1.4,1.4,3.5,2.9,5.5,2c0.1,0,0.1-0.1,0.1-0.2s0-0.1,0-0.2s0-0.1-0.1-0.2
	C131.4,65.3,131.3,65.3,131.3,65.3z"/>
<path class="st4" d="M116.8,66c-1-0.2-2-0.3-3-0.3c-0.7-0.1-3.8-0.9-3-2.1c0.3-0.4-0.4-0.9-0.7-0.5c-2.3,2.7,4.9,5.1,6.8,3.7
	c0.1,0,0.1-0.1,0.1-0.2s0-0.2,0-0.2c0-0.1,0-0.2-0.1-0.2C117,66.1,116.9,66.1,116.8,66z"/>
<path class="st6" d="M257.1,27.1H72.9v151.5h184.2V27.1z"/>
<path class="st2" d="M112.4,191.6c-9.9-1.2-20-2.7-29.8-0.9c0.8-15.6,2.9-31.2,9-45.6c6.1-14.3,16.4-27.3,30.4-34.1
	c17.5-8.6,38.7-8.6,57.1-3.2c18.1,5.4,35,19.2,47.8,32.6c6.8,7.1,12.8,14.9,17.9,23.3c1.3,2,2.4,4.2,3.1,6.4
	c0.6,2.1,0.8,4.3,0.5,6.5s-1.1,4.3-2.2,6.1c-7.7,12.2-26,8.4-37.9,9.6c-10.6,1.1-21.3,1.8-31.9,2.1
	C154.9,195.1,133.6,194.1,112.4,191.6z"/>
<path class="st1" d="M114.9,134.7c1.4-5.3,2.6-11.2,1.4-16.1c-1.3-5.2-5.5-9.7-7.7-14.5c-2-4.4-3-9.6-1.3-14
	c0.1-0.3,0.2-0.6,0.4-0.8c0.2-0.2,0.5-0.3,0.8-0.4s0.6-0.1,0.9-0.1s0.6,0.1,0.8,0.3c0.3,0.2,0.5,0.4,0.6,0.6c0.6,1,1,2.2,1.2,3.3
	c0.9,3.3,3.2,6,5.3,8.6c5,6,11.3,9.9,12.6,18.1c0.8,5.3,0.3,10.8,0.8,16.2c0.6,6.3,1.6,12.5,2.2,18.7c0.6,6.5,2.5,26.3-5.2,29.5
	c-4.8,2-16.6,0.4-20.4-3.5c-1.1-1.2-1.9-2.6-2.4-4.2c-0.5-1.5-0.7-3.2-0.6-4.8c0.2-3.2,1-6.4,2.1-9.4c2.4-7.3,5-14.5,6.8-21.9
	C113.9,138.7,114.4,136.7,114.9,134.7z"/>
<path class="st4" d="M200.7,162.6c0-0.1-0.1-0.2-0.1-0.3c-0.1-0.1-0.1-0.2-0.2-0.3s-0.2-0.1-0.3-0.1c-0.1,0-0.2,0-0.3,0
	c-3.2-3.3-6.5-6.9-10.4-9.2c-0.3-0.2-0.8,0.2-0.6,0.6c1.5,1.8,3.2,3.5,5,5.1c1.9,1.9,3.7,3.7,5.5,5.6c0.5,0.5,1.6,0.2,1.5-0.6
	C200.7,163.1,200.7,162.9,200.7,162.6z"/>
<path class="st1" d="M212.1,159.9c-11.6,2-23.4,6.2-33.7,10c-2.6,1.1-5.3,1.9-8.1,2.4c-3,0.3-6,0.3-9,0.1c-8-0.1-16.5,1.8-22,7.5
	c-2,2-2.5,7.1,0.7,8.4c3.2,1.3,8.3-1,12-0.6c3.7,0.5,7.5,0.5,11.2,0.1c11.4-1.2,22.9-1.9,34.4-1.9c13.4-0.1,26.8,0.6,40-1.5
	c2.5-0.3,5-1,7.2-2.3c5.5-3.4,6.8-11.8,2.6-16.4c-4.8-5.2-13.9-6.9-20.6-7.1C221.8,158.6,216.9,159,212.1,159.9z"/>
<path class="st6" d="M257.1,27.1H72.9v151.5h184.2V27.1z"/>
<path class="st2" d="M80.4,18.6h169.1c2.2,0,4.3,0.9,5.8,2.4c1.5,1.5,2.4,3.6,2.4,5.8V37H72.2V26.8c0-1.1,0.2-2.2,0.6-3.2
	c0.4-1,1-1.9,1.8-2.7c0.8-0.8,1.7-1.4,2.7-1.8C78.3,18.8,79.4,18.6,80.4,18.6z"/>
<path class="st4" d="M83.8,33.8c2.8,0,5-2.3,5-5c0-2.8-2.3-5-5-5c-2.8,0-5,2.3-5,5C78.7,31.5,81,33.8,83.8,33.8z"/>
<path class="st4" d="M107.4,28.5c0,1-0.2,2-0.7,2.8c-0.5,0.9-1.3,1.5-2.2,1.9c-0.9,0.4-1.9,0.6-2.9,0.4c-1-0.2-1.9-0.6-2.6-1.3
	s-1.3-1.5-1.5-2.5s-0.2-2,0.2-2.9c0.3-0.9,0.9-1.7,1.8-2.3c0.8-0.6,1.8-0.9,2.8-1c1.3-0.1,2.6,0.4,3.6,1.3
	C106.8,25.9,107.4,27.2,107.4,28.5z"/>
<path class="st4" d="M107.4,28.5c0,1-0.2,2-0.7,2.8c-0.5,0.9-1.3,1.5-2.2,1.9c-0.9,0.4-1.9,0.6-2.9,0.4c-1-0.2-1.9-0.6-2.6-1.3
	s-1.3-1.5-1.5-2.5s-0.2-2,0.2-2.9c0.3-0.9,0.9-1.7,1.8-2.3c0.8-0.6,1.8-0.9,2.8-1c1.3-0.1,2.6,0.4,3.6,1.3
	C106.8,25.9,107.4,27.2,107.4,28.5z"/>
<path class="st6" d="M96.5,22.6l11.7,12.3"/>
<path class="st6" d="M96.3,34.6l12.3-11.7"/>
<path class="st1" d="M250.3,244.7H37.4v151.5h212.9V244.7z"/>
<path class="st3" d="M180.1,323.4c8.6,3.8,19,3.7,29.9-3.2c25.1-15.9,17.9-69.6-23.8-59.1C147.2,271,156.1,312.7,180.1,323.4z"/>
<path class="st2" d="M217.5,290.4c-4.4,1.5-8.5,3.5-12.9,4.8c-4,1.2-8.1,2.2-12.3,2.9c0.2-5.5,0.4-11,0.7-16.5
	c0.3-5.7,1.4-11.8,0.8-17.5c0-0.4-0.6-0.5-0.7-0.1c-1.4,5.4-1.3,11.4-1.7,16.9c-0.4,6.1-0.7,12.1-1,18.2c0,0.1,0,0.3,0.1,0.4
	s0.1,0.2,0.2,0.3c0.1,0.1,0.2,0.1,0.4,0.2c0.1,0,0.3,0,0.4,0c8.8-1.4,18.7-3.5,26.5-8.1C218.9,291.4,218.4,290.1,217.5,290.4z"/>
<path class="st2" d="M194.2,323.2c-0.1-0.5,0-0.9,0.2-1.4c0.2-0.4-0.2-0.9-0.6-0.6c-0.3,0.2-0.6,0.5-0.8,0.8
	c-0.2,0.3-0.3,0.7-0.3,1.1c0,0.7,0.4,1.7,1.2,1.6c0.1,0,0.2,0,0.3-0.1c0.1-0.1,0.1-0.2,0.2-0.3C194.6,324,194.3,323.6,194.2,323.2z"
	/>
<path class="st2" d="M166.4,292.5c-0.4-0.8-0.9-0.2-1.5,0c-0.7,0.2-1.4,0.2-2.1,0.2c-0.8,0.1-1.5,0.2-2.3,0.3c-0.5,0.1-0.5,0.9,0,1
	c1.4,0.3,2.9,0.3,4.3,0.2C165.6,294.1,166.9,293.4,166.4,292.5z"/>
<path class="st2" d="M194.6,260.4c-0.1-0.1-0.2-0.1-0.3-0.1c-0.1,0-0.2,0-0.3,0.1c-0.4,0.2-0.6,0.6-0.8,1c-0.1,0.4-0.1,0.9,0.1,1.2
	c0,0.1,0.1,0.3,0.2,0.4s0.2,0.2,0.4,0.2c0.1,0,0.2,0,0.4,0c0.1,0,0.2-0.1,0.3-0.2c0.1-0.1,0.2-0.2,0.2-0.3c0.1-0.1,0.1-0.2,0.1-0.4
	c0.1-0.3,0.1-0.7,0.1-1C194.9,261,194.8,260.7,194.6,260.4z"/>
<path class="st2" d="M167.8,274.4c-0.7-0.2-1.3-0.4-2-0.5c-0.5-0.1-0.9,0.6-0.4,0.9c0.6,0.3,1.2,0.6,1.8,0.8
	c0.5,0.2,1.1,0.5,1.6,0.1c0.1,0,0.1-0.1,0.2-0.2c0-0.1,0-0.2,0-0.2C168.9,274.7,168.3,274.6,167.8,274.4z"/>
<path class="st2" d="M175.8,269.1c-0.4-0.4-0.9-0.7-1.4-1.1s-0.7-0.8-1.2-1.1c-0.1,0-0.2-0.1-0.3-0.1c-0.1,0-0.2,0-0.3,0.1
	c-0.1,0.1-0.1,0.1-0.2,0.2c0,0.1,0,0.2,0,0.3c0.3,0.6,0.6,1.1,1.1,1.5s1,0.7,1.6,0.9c0.1,0,0.2,0,0.3,0c0.1,0,0.2-0.1,0.2-0.2
	c0.1-0.1,0.1-0.2,0.1-0.3S175.9,269.2,175.8,269.1z"/>
<path class="st2" d="M171.3,311.8c-0.9,0.6-1.7,1.4-2.4,2.2c-0.3,0.4,0.1,1.2,0.6,0.8c0.9-0.6,1.7-1.4,2.4-2.2
	C172.3,312.2,171.8,311.5,171.3,311.8z"/>
<path class="st2" d="M179.6,318.2c-0.3,0.5-0.6,1-0.9,1.5s-0.5,0.8-0.4,1.4c0,0.1,0.1,0.3,0.3,0.3c0.1,0.1,0.3,0.1,0.4,0.1
	c0.6-0.2,0.7-0.5,0.9-1l0.8-1.5c0-0.1,0.1-0.2,0.1-0.2c0-0.1,0-0.2,0-0.3c0-0.1-0.1-0.2-0.1-0.2c-0.1-0.1-0.1-0.1-0.2-0.2
	c-0.1,0-0.2-0.1-0.2-0.1c-0.1,0-0.2,0-0.3,0c-0.1,0-0.2,0.1-0.2,0.1C179.7,318,179.6,318.1,179.6,318.2z"/>
<path class="st2" d="M208.4,319.4c-0.3-0.1-0.7-0.2-0.8-0.6c0-0.1-0.1-0.3-0.2-0.3c-0.1-0.1-0.2-0.2-0.3-0.2c-0.1,0-0.3,0-0.4,0.1
	s-0.2,0.2-0.2,0.3c-0.1,0.3-0.1,0.6-0.1,0.9c0.1,0.3,0.2,0.6,0.4,0.8s0.4,0.4,0.7,0.5c0.3,0.1,0.6,0.1,0.9,0.1
	C209.2,320.8,209,319.7,208.4,319.4z"/>
<path class="st2" d="M175.6,409.8c2.6,3.2,7.5,2.6,11.4,1.7c3.9-1,8.6-2,11.7,0.7c1.3-13.7-2.2-27.4-9.8-38.8
	c-7.6-11.4-19-19.9-32.1-23.9c-10.9-3.4-21-2.1-32.2-1.4c-13,0.8-25.5,5.4-36.7,11.9c-16.8,9.8-38.7,25.4-44.5,44.7"/>
<path class="st1" d="M110.8,378.6c-1.3-0.9-2.5-2-3.5-3.2c-0.9-1.3-1.5-2.8-1.8-4.4s-0.3-3.2,0.1-4.7c0.7-3.1,1.7-6.1,3-9
	c6.4-16.7,5.2-35,11.4-51.9c1.1-3,2.3-6.8,4.3-9.3c2.1-2.2,4.6-4.2,7.2-5.7c9.7-6.5,23.3-11.2,33-2.1c5.2,4.9,6.3,12.8,6.1,19.9
	c-0.2,10-2.3,19.8-6.1,29.1c-0.9,2.1-2.2,4.1-3.9,5.7s-3.7,2.8-5.9,3.6c-3.8,1.4-5.6,1-7.3,4.7c-2,4.8-2.7,10-2.1,15.1
	c0.5,2.2,0.8,4.5,0.8,6.8c-1.1,12.5-15.7,12.8-24.9,10.6C117.5,382.6,114,380.9,110.8,378.6z"/>
<path class="st1" d="M204.3,334.1c0.8-1.9,2.1-3.6,3.6-5c3.1-2.6,6.5-4.9,10.2-6.7c0.2-0.1,0.4-0.2,0.6-0.3c0.2,0,0.4,0,0.7,0
	c0.2,0.1,0.4,0.3,0.5,0.5s0.1,0.5,0,0.7c-0.1,0.5-0.4,0.9-0.8,1.3l-2.5,3c-3,3.5,3.9,1.4,5,0.9c3.1-1.1,6-2.8,8.5-5
	c0.9-0.8,1.8-1.5,2.7-2.2c1.3-0.8,2.8-1.2,4.3-1c1,0.3,2,0.8,2.6,1.7c0.7,0.8,1.1,1.8,1.1,2.9c0.2,4.7-3.9,9.9-7.3,12.3
	c-3.8,2.6-8,4.5-12.5,5.5c-0.4,0.1-0.8,0.3-1.1,0.5c-0.3,0.3-0.5,0.6-0.6,1l-12,43.3c-1.2,4.6-2.7,9.1-4.4,13.5
	c-2,4.9-4.7,9.8-10.1,11.4c-1.9,0.5-3.9,0.6-5.8,0.1c-1.9-0.4-3.7-1.4-5.2-2.7c-9.4-8.5,0.6-25.7,4.2-34.7
	c3.3-8.4,6.9-16.7,10.6-24.9c1.9-4.1,3.8-8.2,5.8-12.3C203.2,336.6,203.7,335.3,204.3,334.1z"/>
<path class="st2" d="M114.9,291.2c1.4-1.6,2.9-3,4.5-4.4c-2.6-1.8-5-4.8-4.1-7.8c0.6-1.5,1.6-2.7,3-3.5c1.7-1.1,3.7-1.9,5.7-2.2
	s4.1-0.2,6.1,0.3c3.6,1.1,6.8,3.1,9.4,5.7c0.4,0.4,0.8,0.7,1.4,0.9c0.4,0.1,0.8,0.1,1.2,0L155,279c3.3-0.4,6.7-0.5,10.1-0.2
	c5.2,0.6,10.8,3.3,11.3,9s-3.7,10.9-8.7,13.4c-5.3,2.6-11.5,2.7-17.4,2.8c-5.9,0.1-12,0.1-17.4,2.6c-2.4,0.9-4.4,2.7-5.6,5
	c-0.6,1.4-0.8,3.2-2.1,3.9c-2.1,1.1-2.3,1.2-3.1,3.5c-0.9,2.6-2,5.3-3.1,7.8s-4.6,8.2-8.1,5.3c-2.6-2.1-2.3-10.9-2.5-14.1
	c-0.4-7.3-0.2-17.1,3.8-23.5C113.1,293.4,114,292.2,114.9,291.2z"/>
<path class="st2" d="M156.8,332.6c-0.4,0.2-0.8,0.2-1.3,0.2c-0.4,0-0.9-0.1-1.3-0.3c-0.6-0.2-1.4,0.3-0.9,0.9
	c0.5,0.7,1.2,1.2,2.1,1.4c0.8,0.2,1.7,0,2.4-0.4C159,333.7,158,332.1,156.8,332.6z"/>
<path class="st2" d="M148,316.4c-1.1-0.7-3.7,1.1-1.5,2.1c0.9,0.4,2.2-0.5,1.9-1.5C148.4,316.8,148.3,316.5,148,316.4z"/>
<path class="st2" d="M167.1,315.9c-0.3-0.2-0.6-0.3-0.9-0.3s-0.6,0.1-0.9,0.3c-0.2,0.2-0.3,0.4-0.3,0.7c0,0.2,0,0.5,0.2,0.7
	c0,0.2,0.1,0.3,0.2,0.5s0.3,0.3,0.5,0.4s0.4,0,0.6-0.1s0.5-0.3,0.6-0.5c0.2-0.2,0.3-0.5,0.4-0.7c0-0.2,0-0.3,0-0.5
	C167.3,316.1,167.2,316,167.1,315.9z"/>
<path class="st2" d="M159.1,317.9c-0.2-0.5-1-0.6-1.1,0c-0.2,1.7-0.6,3.5-1,5.2c-0.3,1.1-1,2.6-0.3,3.7c0.6,0.9,2.2,0.3,1.8-0.8
	s0.6-3.3,0.8-4.5C159.5,320.3,159.5,319,159.1,317.9z"/>
<path class="st4" d="M120.3,316.2c-1,0.1-2,0.5-2.8,1.1c-1,0.5-1.9,1.3-2.5,2.3c-0.8,1.3-1.2,2.8-1.2,4.3s0.5,3,1.4,4.2
	c0.9,1.1,2.1,1.8,3.5,2s2.8-0.2,4-1C127.4,325.9,128,315.4,120.3,316.2z"/>
<path class="st2" d="M121.4,320.7c-0.5,0-0.9,0.2-1.3,0.4c-0.4,0.2-0.7,0.6-1,0.9c-0.3,0.4-0.5,0.8-0.5,1.3c-0.1,0.5,0,1,0.2,1.4
	c0.1,0.1,0.2,0.2,0.3,0.3c0.1,0,0.3,0,0.4,0c0.4-0.2,0.3-0.7,0.3-1.1c0-0.5,0.2-1,0.4-1.4c0.3-0.4,0.7-0.7,1.1-0.9
	C122.1,321.6,122,320.7,121.4,320.7z"/>
<path class="st2" d="M127.8,341.4c-2.9-2-6.5-6.3-6.2-10.3l-0.4-0.1c-1.2-0.3-2.4-0.7-3.6-1.3c0.2,0.1,0,6,0.1,6.7
	c0.3,2.4,0.8,4.7,1.5,7c0.9,2.7,3.1,10.7,7.3,8.2c2.1-1.2,4.1-2.5,6.1-3.7c1.1-0.7,2.1-1.4,3.2-2.1l0.4-0.2
	C133.3,344.5,130.4,343.1,127.8,341.4z"/>
<path class="st2" d="M216,328.9c0-0.1-0.1-0.2-0.2-0.2s-0.2,0-0.3,0c-0.1,0-0.2,0.1-0.2,0.2c-0.1,0.1-0.1,0.2-0.1,0.3
	c0.1,1,0.1,1.9-0.1,2.9c-0.2,0.9-0.7,1.8-1.2,2.6c-0.3,0.5,0.4,0.9,0.8,0.6c0.8-0.8,1.4-1.8,1.7-2.9
	C216.5,331.1,216.4,329.9,216,328.9z"/>
<path class="st2" d="M219.6,337.4c-1.8-0.4-3.6-0.2-5.3,0.5c-1.4,0.5-2.6,1.5-3.3,2.9c0,0.1,0,0.2,0,0.3c0,0.1,0.1,0.2,0.2,0.2
	s0.2,0.1,0.3,0c0.1,0,0.2-0.1,0.2-0.1c1-1.3,2.4-2.2,4-2.4c1.4-0.1,2.7-0.3,4-0.7C220,337.9,219.8,337.5,219.6,337.4z"/>
<path class="st6" d="M250.3,244.7H37.4v151.5h212.9V244.7z"/>
<path class="st2" d="M45,231.4h197.7c2.2,0,4.3,0.9,5.8,2.4s2.4,3.6,2.4,5.8v10.3H36.7v-10.3c0-1.1,0.2-2.1,0.6-3.1
	c0.4-1,1-1.9,1.8-2.7s1.7-1.4,2.7-1.8C42.8,231.6,43.9,231.4,45,231.4z"/>
<path class="st4" d="M48.3,246.7c2.8,0,5-2.3,5-5s-2.3-5-5-5c-2.8,0-5,2.3-5,5S45.5,246.7,48.3,246.7z"/>
<path class="st4" d="M72,241.4c0,1-0.2,2-0.7,2.8c-0.5,0.9-1.3,1.5-2.2,1.9s-1.9,0.6-2.9,0.4c-1-0.2-1.9-0.6-2.6-1.3
	c-0.7-0.7-1.3-1.5-1.5-2.5s-0.2-2,0.2-2.9c0.3-0.9,0.9-1.7,1.8-2.3c0.8-0.6,1.8-0.9,2.8-1c1.3-0.1,2.6,0.4,3.6,1.3
	C71.3,238.8,71.9,240,72,241.4z"/>
<path class="st4" d="M72,241.4c0,1-0.2,2-0.7,2.8c-0.5,0.9-1.3,1.5-2.2,1.9s-1.9,0.6-2.9,0.4c-1-0.2-1.9-0.6-2.6-1.3
	c-0.7-0.7-1.3-1.5-1.5-2.5s-0.2-2,0.2-2.9c0.3-0.9,1-1.7,1.8-2.3s1.8-0.9,2.8-1c1.3-0.1,2.6,0.4,3.6,1.3S71.9,240,72,241.4z"/>
<path class="st6" d="M61.1,235.5l11.7,12.3"/>
<path class="st6" d="M60.8,247.5l12.3-11.7"/>
<path class="st6" d="M229.3,224.2l16.6-20.5l6.5,20.5l14.4-21.2l6.8,21.2l14.1-20.9l6.7,20.9l13.6-20"/>
<path class="st7" d="M0,383.8l16.6-20.5l6.5,20.5l14.4-21.2l6.8,21.2l14.2-20.9l6.6,20.9"/>
<path class="st6" d="M100.9,478.1c0.4-1.1,1-2,1.8-2.7c0.8-0.8,1.8-1.3,2.9-1.6c1.1-0.3,2.2-0.3,3.3,0c1.1,0.3,2.1,0.8,2.9,1.5
	l0.4,0.4c0.9,0.8,1.9,1.3,3.1,1.5c1.1,0.2,2.3,0.2,3.4-0.2c1.1-0.3,2.1-1,2.9-1.8s1.4-1.8,1.7-3l2.2-8.3c0.3-1.1,0.9-2.1,1.7-3
	c0.8-0.8,1.8-1.4,2.9-1.8c1.1-0.3,2.3-0.4,3.4-0.2c1.1,0.2,2.2,0.7,3.1,1.5l0.3,0.2c0.9,0.8,1.9,1.3,3.1,1.5
	c1.1,0.2,2.3,0.2,3.4-0.2c1.1-0.3,2.1-1,2.9-1.8s1.4-1.8,1.7-3l2-7.8c0.3-1.1,0.9-2.1,1.7-3c0.8-0.8,1.8-1.4,2.9-1.8
	c1.1-0.3,2.3-0.4,3.4-0.2c1.1,0.2,2.2,0.7,3.1,1.5s1.9,1.3,3.1,1.5c1.1,0.2,2.3,0.2,3.4-0.2c1.1-0.3,2.1-1,2.9-1.8s1.4-1.8,1.7-3"/>
<path class="st6" d="M217.4,1.2c1-0.4,2.2-0.5,3.3-0.4c1.1,0.1,2.1,0.5,3.1,1.2c0.9,0.6,1.6,1.5,2.2,2.5c0.5,1,0.8,2.1,0.8,3.2v0.6
	c0,1.2,0.3,2.3,0.8,3.3s1.3,1.9,2.3,2.5s2.1,1,3.2,1.1s2.3-0.1,3.3-0.6l7.8-3.7c1-0.5,2.2-0.7,3.3-0.6c1.1,0.1,2.3,0.4,3.2,1.1
	c1,0.6,1.8,1.5,2.3,2.5s0.8,2.1,0.8,3.3v0.4c0,1.2,0.3,2.3,0.8,3.3s1.3,1.9,2.3,2.5c1,0.6,2.1,1,3.2,1.1c1.1,0.1,2.3-0.1,3.3-0.6
	l7.3-3.5c1-0.5,2.2-0.7,3.3-0.6c1.1,0.1,2.3,0.4,3.2,1.1c1,0.6,1.8,1.5,2.3,2.5s0.8,2.2,0.8,3.3l0,0c0,1.1,0.3,2.3,0.8,3.3
	s1.3,1.9,2.3,2.5c1,0.6,2.1,1,3.2,1.1c1.1,0.1,2.3-0.1,3.3-0.6"/>
<path class="st7" d="M291.5,327.3c-2.1-2.4-3.7-5.3-4.7-8.4s-1.4-6.3-1.1-9.5c0.2-3.2,1.1-6.4,2.6-9.2c1.5-2.9,3.5-5.4,5.9-7.5
	c4.9-4.2,11.4-6.3,17.9-5.9c6.5,0.5,12.5,3.5,16.8,8.5"/>
<path class="st3" d="M494.5,39.3c7.2,0,13-5.8,13-13s-5.8-13-13-13s-13,5.8-13,13S487.3,39.3,494.5,39.3z"/>
<path class="st4" d="M530.8,377.2c3.8,0,7.6,0.8,11.2,2.2c3.5,1.5,6.8,3.6,9.5,6.3c2.7,2.7,4.9,5.9,6.3,9.5
	c1.5,3.5,2.2,7.3,2.2,11.2"/>
<path class="st6" d="M530.8,377.2c3.8,0,7.6,0.8,11.2,2.2c3.5,1.5,6.8,3.6,9.5,6.3c2.7,2.7,4.9,5.9,6.3,9.5
	c1.5,3.5,2.2,7.3,2.2,11.2"/>
<path class="st6" d="M548.4,3.9l-40.9,40.9"/>
<rect x="73.2" y="179.2" class="st4" width="177.4" height="23.2"/>
<rect x="40.4" y="396.8" class="st4" width="169.2" height="28.7"/>
<rect x="307.9" y="231.7" class="st4" width="222.4" height="42.3"/>
<path class="st7" d="M495.9,261.1l24.9-20.5l6.5,20.5l21.9-21.2l6.8,21.2l21.5-20.9l6.6,20.9l20.7-20"/>
<path class="st6" d="M382.6,254.3l-40.9,40.9"/>
<path class="st6" d="M371.7,273.4l-40.9,40.9"/>
</svg>
